# xmcd CD database file
#
# Track frame offsets:
#	150
#	13100
#	35307
#	48770
#	72047
#	90875
#	106842
#	119080
#	129227
#	147027
#
# Disc length: 2310 seconds
#
# Revision: 0
# Processed by: cddbd v1.4PL0 Copyright (c) Steve Scherf et al.
# Submitted via: CDex 1.50
#
DISCID=7509040a
DTITLE=Gospangels - Gospangels
DYEAR=1900
DGENRE=Jazz
TTITLE0=Chanter
TTITLE1=Espérance
TTITLE2=I will follow him
TTITLE3=Seul au combat
TTITLE4=This little light of mine
TTITLE5=Il faudrait leur dire
TTITLE6=Le chant de la douleur
TTITLE7=Let the sunshine in
TTITLE8=Happy day
TTITLE9=Au nom de l'amour
EXTD=
EXTT0=
EXTT1=
EXTT2=
EXTT3=
EXTT4=
EXTT5=
EXTT6=
EXTT7=
EXTT8=
EXTT9=
PLAYORDER=
